<?xml version="1.0" encoding="UTF-8"?>
<svg version="1.1" xmlns="http://www.w3.org/2000/svg" width="588" height="457">
<path d="M0 0 C194.04 0 388.08 0 588 0 C588 150.81 588 301.62 588 457 C393.96 457 199.92 457 0 457 C0 306.19 0 155.38 0 0 Z " fill="#3B34B3" transform="translate(0,0)"/>
<path d="M0 0 C9.10584 5.12447989 14.84965593 12.38794651 19.44384766 21.60205078 C20.25221069 23.19001465 20.25221069 23.19001465 21.0769043 24.81005859 C28.27055481 39.51390959 33.18889438 55.13677841 38.06884766 70.72705078 C38.53363525 72.20238281 38.53363525 72.20238281 39.0078125 73.70751953 C40.85882517 79.67278182 42.49507876 85.6833473 44.06884766 91.72705078 C44.25167297 92.42693115 44.43449829 93.12681152 44.62286377 93.84790039 C57.06884766 141.51167633 57.06884766 141.51167633 57.06884766 147.72705078 C57.72884766 147.72705078 58.38884766 147.72705078 59.06884766 147.72705078 C59.34792969 146.85209961 59.62701172 145.97714844 59.91455078 145.07568359 C60.97533962 141.99831902 62.18121578 139.10543034 63.53759766 136.14892578 C64.02147949 135.08343506 64.50536133 134.01794434 65.00390625 132.92016602 C65.52033691 131.78393799 66.03676758 130.64770996 66.56884766 129.47705078 C72.58447311 116.08323979 78.02935546 102.52117949 83.06884766 88.72705078 C83.38611816 87.86192871 83.70338867 86.99680664 84.03027344 86.10546875 C90.38321494 68.57975078 96.89473857 47.1788107 88.92822266 29.14501953 C87.32435707 26.15467979 85.84474519 23.48651755 83.40869141 21.10205078 C82.06884766 19.72705078 82.06884766 19.72705078 82.06884766 17.72705078 C83.53417969 16.46191406 83.53417969 16.46191406 85.57666016 15.04736328 C86.31658203 14.53044922 87.05650391 14.01353516 87.81884766 13.48095703 C88.60259766 12.94341797 89.38634766 12.40587891 90.19384766 11.85205078 C90.95439453 11.32224609 91.71494141 10.79244141 92.49853516 10.24658203 C96.6564166 7.3575713 100.84586083 4.51988872 105.06884766 1.72705078 C117.31331062 7.11670756 123.13574784 27.212989 127.78491211 38.90698242 C136.21587056 60.81935794 143.19860671 83.31610028 149.30859375 105.97216797 C150.54595829 110.45592568 151.9005014 114.90296732 153.25634766 119.35205078 C155.05624912 125.29172562 156.81608006 131.23763446 158.44384766 137.22705078 C158.76095703 138.39236328 159.07806641 139.55767578 159.40478516 140.75830078 C160.06884766 143.72705078 160.06884766 143.72705078 160.06884766 147.72705078 C160.72884766 147.72705078 161.38884766 147.72705078 162.06884766 147.72705078 C162.24163239 147.17135406 162.41441711 146.61565735 162.59243774 146.04312134 C164.31076575 140.68392346 166.36403775 135.67281823 168.84228516 130.62548828 C169.58630761 129.08322845 170.33002901 127.54082335 171.07348633 125.99829102 C171.46039642 125.19994843 171.84730652 124.40160583 172.24594116 123.57907104 C197.42587149 78.46807487 197.42587149 78.46807487 203.35009766 29.93017578 C201.52095522 24.94428753 199.7961459 21.51494462 195.06884766 18.72705078 C191.91953872 17.67728114 189.68070309 17.62573483 186.38134766 17.66455078 C185.38748047 17.67357422 184.39361328 17.68259766 183.36962891 17.69189453 C182.61037109 17.70349609 181.85111328 17.71509766 181.06884766 17.72705078 C182.33875384 13.91733223 183.86762474 13.19062715 187.13134766 10.91455078 C190.62442232 8.45444761 194.07216731 5.97590145 197.44384766 3.35205078 C202.68214216 -0.53442579 206.94889342 -1.84913686 213.50244141 -1.72216797 C219.18383805 -0.72770737 222.81636289 3.31399104 226.50634766 7.47705078 C230.66438565 13.4646255 230.08281389 20.75148308 229.06884766 27.72705078 C226.92221017 36.65237684 223.43016655 45.20380491 220.06884766 53.72705078 C219.81945435 54.36251831 219.57006104 54.99798584 219.31311035 55.65270996 C210.93078405 76.97300354 201.62553201 97.87378747 192.19973755 118.74841309 C189.80349534 124.06637646 187.44890057 129.40117481 185.12353516 134.75048828 C184.65255402 135.83331589 184.65255402 135.83331589 184.17205811 136.9380188 C182.70825592 140.30688903 181.24966081 143.67791347 179.79736328 147.05175781 C177.13433784 153.19333967 174.39861415 159.29511195 171.48291016 165.32080078 C170.68167725 166.9865918 170.68167725 166.9865918 169.86425781 168.68603516 C165.78518711 175.59505129 159.4630783 179.35516677 152.88134766 183.60205078 C151.96675781 184.20791016 151.05216797 184.81376953 150.10986328 185.43798828 C149.23652344 186.00517578 148.36318359 186.57236328 147.46337891 187.15673828 C146.66778564 187.67478027 145.87219238 188.19282227 145.05249023 188.7265625 C144.39788818 189.05672363 143.74328613 189.38688477 143.06884766 189.72705078 C141.06884766 188.72705078 141.06884766 188.72705078 140.44438171 187.01954651 C140.18054436 185.90518471 140.18054436 185.90518471 139.91137695 184.76831055 C139.7074382 183.92555069 139.50349945 183.08279083 139.29338074 182.2144928 C138.97147514 180.83045509 138.97147514 180.83045509 138.64306641 179.41845703 C138.29886406 177.98638161 138.29886406 177.98638161 137.94770813 176.52537537 C137.2094389 173.44857358 136.48230581 170.36927845 135.75634766 167.28955078 C132.44736322 153.35727983 129.05564087 139.48263973 125.06884766 125.72705078 C124.88184296 125.08089813 124.69483826 124.43474548 124.50216675 123.76901245 C123.2554709 119.477292 121.98033659 115.19448966 120.69384766 110.91455078 C120.50419434 110.28271881 120.31454102 109.65088684 120.11914062 108.99990845 C117.54448837 100.43567344 114.88731086 91.90198533 112.06884766 83.41455078 C111.63306396 82.09910278 111.63306396 82.09910278 111.18847656 80.75708008 C110.15091561 76.94892984 110.15091561 76.94892984 108.06884766 73.72705078 C107.82465088 74.37625488 107.5804541 75.02545898 107.32885742 75.69433594 C99.38252837 96.67758273 90.3717898 117.11472378 81.06988525 137.52709961 C79.8207659 140.27225283 78.57896159 143.02067915 77.33726501 145.76919556 C76.00391478 148.71627397 74.66141036 151.65916019 73.31884766 154.60205078 C72.85422119 155.62830566 72.38959473 156.65456055 71.91088867 157.71191406 C64.89587232 172.9556621 64.89587232 172.9556621 58.94384766 177.28955078 C58.17685547 177.84900391 57.40986328 178.40845703 56.61962891 178.98486328 C43.81996873 187.72705078 43.81996873 187.72705078 41.06884766 187.72705078 C41.06884766 188.38705078 41.06884766 189.04705078 41.06884766 189.72705078 C40.07884766 189.72705078 39.08884766 189.72705078 38.06884766 189.72705078 C37.83286865 188.63690674 37.59688965 187.5467627 37.35375977 186.42358398 C22.33439901 106.25640048 22.33439901 106.25640048 -10.93115234 32.72705078 C-11.30240234 32.10056641 -11.67365234 31.47408203 -12.05615234 30.82861328 C-15.79646238 24.88048135 -21.69989219 20.84268086 -27.93115234 17.72705078 C-30.13844464 17.65612237 -32.34782687 17.64290053 -34.55615234 17.66455078 C-36.33892578 17.67808594 -36.33892578 17.67808594 -38.15771484 17.69189453 C-39.53056641 17.70929688 -39.53056641 17.70929688 -40.93115234 17.72705078 C-39.42745171 13.28706986 -35.96292976 11.41097525 -32.18115234 9.03955078 C-31.57271484 8.63671875 -30.96427734 8.23388672 -30.33740234 7.81884766 C-26.55214 5.40452969 -23.49535622 4.14006923 -18.93115234 3.72705078 C-18.93115234 3.06705078 -18.93115234 2.40705078 -18.93115234 1.72705078 C-12.4072008 -1.06892845 -6.87993493 -2.98783781 0 0 Z " fill="#FCFBFD" transform="translate(102.93115234375,144.27294921875)"/>
<path d="M0 0 C0.29132813 0.99515625 0.58265625 1.9903125 0.8828125 3.015625 C3.91095336 13.34419665 6.98820429 23.65739854 10.08740234 33.96484375 C11.91366144 40.03869423 13.73877601 46.11288789 15.5625 52.1875 C15.75852814 52.84042023 15.95455627 53.49334045 16.15652466 54.16604614 C18.3519073 61.48031548 20.54080005 68.79627038 22.6875 76.125 C24.42277588 82.04609268 26.17167121 87.96293877 27.9375 93.875 C28.1543042 94.60477051 28.3711084 95.33454102 28.59448242 96.08642578 C33.04293173 110.94427828 37.80849311 125.70595904 42.78710938 140.39404297 C43.35367018 142.07160442 43.91572666 143.75069279 44.47363281 145.43115234 C45.2980044 147.91330001 46.13572793 150.39057558 46.9765625 152.8671875 C47.22145416 153.61298065 47.46634583 154.3587738 47.71865845 155.12716675 C49.18813063 159.39682272 50.73585117 162.74408802 54 166 C57.5893063 166.68016245 57.5893063 166.68016245 61.5 166.4375 C62.8096875 166.41558594 64.119375 166.39367187 65.46875 166.37109375 C68.68299643 166.03331343 70.23862255 165.46227487 73 164 C73.99 164.33 74.98 164.66 76 165 C55.85714286 180 55.85714286 180 52 180 C52 180.66 52 181.32 52 182 C46.94847643 184.42473132 42.48733786 185.37240052 36.875 185.6875 C35.71742188 185.75324219 34.55984375 185.81898438 33.3671875 185.88671875 C29.01606091 184.74088843 27.76570758 182.97624948 25.32226562 179.31713867 C23.206643 175.60972096 21.69886649 171.84334701 20.3125 167.8125 C19.99071777 166.90411377 19.66893555 165.99572754 19.33740234 165.05981445 C15.98362973 155.35990128 13.05517449 145.52179933 10.125 135.6875 C9.88407623 134.8792276 9.64315247 134.0709552 9.39492798 133.2381897 C7.01084306 125.20819389 4.64595255 117.22030327 3 109 C2.17218018 109.42986206 2.17218018 109.42986206 1.32763672 109.8684082 C-11.37394732 116.416124 -24.16790764 116.13083787 -38.25 116.5625 C-39.59245692 116.60584172 -40.93490495 116.64946003 -42.27734375 116.69335938 C-45.5181527 116.79827765 -48.75902277 116.90044015 -52 117 C-52.25056152 117.49701416 -52.50112305 117.99402832 -52.75927734 118.50610352 C-60.48841756 133.74530402 -68.78954558 147.73158715 -80.06640625 160.609375 C-82.16939148 162.92362918 -82.16939148 162.92362918 -83 166 C-78.62408215 165.72118204 -74.24953424 165.42468691 -69.875 165.125 C-68.6375 165.04636719 -67.4 164.96773437 -66.125 164.88671875 C-64.92617188 164.80292969 -63.72734375 164.71914063 -62.4921875 164.6328125 C-61.39245605 164.55949707 -60.29272461 164.48618164 -59.15966797 164.41064453 C-55.89545955 163.98641346 -53.09943735 163.08188422 -50 162 C-47.125 161.875 -47.125 161.875 -45 162 C-48.62261395 165.8682149 -52.32715085 168.75900472 -56.8125 171.5625 C-57.4297998 171.95381104 -58.04709961 172.34512207 -58.68310547 172.74829102 C-63.00481094 175.45715734 -67.36765143 177.85539418 -72 180 C-72.56976563 180.34933594 -73.13953125 180.69867188 -73.7265625 181.05859375 C-76.99581541 182.41235655 -80.25928312 182.4741544 -83.75 182.625 C-84.48919678 182.66294678 -85.22839355 182.70089355 -85.98999023 182.73999023 C-93.65913962 183.09852886 -101.32481363 183.09296996 -109 183 C-106.67802366 179.39428784 -104.34458857 176.15213576 -101.375 173.0625 C-79.56556663 148.72269038 -67.33847075 115.63588234 -54.98095703 85.8503418 C-51.26490997 76.91090093 -47.37647814 68.06504022 -43.375 59.25 C-37.2026718 45.6448833 -31.52516272 31.87922218 -26 18 C-30.07156846 18.06975427 -34.14230217 18.15811971 -38.21313477 18.26245117 C-39.59290949 18.29534498 -40.97280731 18.32348274 -42.3527832 18.34643555 C-51.00948459 18.49422522 -58.78119815 19.20745723 -67 22 C-67.99 22.33 -68.98 22.66 -70 23 C-68.6077486 18.82324581 -65.63204101 17.16805698 -62.1875 14.6875 C-61.50969482 14.19838135 -60.83188965 13.7092627 -60.13354492 13.20532227 C-50.52836576 6.40893889 -41.78635249 2.21982412 -30 1 C-28.74703125 0.83564453 -28.74703125 0.83564453 -27.46875 0.66796875 C-18.35925931 -0.38637045 -9.15445503 -0.08537834 0 0 Z " fill="#FBFAFD" transform="translate(437,145)"/>
<path d="M0 0 C0.66 0 1.32 0 2 0 C3.0424138 3.41643915 4.08389418 6.83316204 5.125 10.25 C5.44049805 11.28527832 5.75599609 12.32055664 6.08105469 13.38720703 C8.39962369 21.00453178 10.69533937 28.62842272 12.95751953 36.26269531 C14.33265012 40.87660739 15.81366387 45.4294257 17.44042969 49.96142578 C18 52 18 52 18 56 C4.14 56 -9.72 56 -24 56 C-23.07457112 51.37285561 -21.623564 47.63656023 -19.6484375 43.41796875 C-19.31131744 42.68612869 -18.97419739 41.95428864 -18.62686157 41.20027161 C-17.54793058 38.86032119 -16.46183645 36.52378761 -15.375 34.1875 C-13.96377924 31.14041386 -12.55559003 28.09193548 -11.1484375 25.04296875 C-10.80319031 24.29602753 -10.45794312 23.5490863 -10.10223389 22.7795105 C-6.62528767 15.23396014 -3.29701472 7.62556682 0 0 Z " fill="#3F3DBD" transform="translate(418,188)"/>
<path d="M0 0 C0.99 0.33 1.98 0.66 3 1 C1.71283353 2.00578589 0.42011342 3.00446798 -0.875 4 C-1.59429687 4.556875 -2.31359375 5.11375 -3.0546875 5.6875 C-5 7 -5 7 -7 7 C-7 6.34 -7 5.68 -7 5 C-10.3 4.67 -13.6 4.34 -17 4 C-17 3.67 -17 3.34 -17 3 C-16.10796875 2.95101563 -15.2159375 2.90203125 -14.296875 2.8515625 C-12.54117187 2.73941406 -12.54117187 2.73941406 -10.75 2.625 C-9.00976562 2.52058594 -9.00976562 2.52058594 -7.234375 2.4140625 C-4.23675428 2.03030912 -2.62377715 1.33510784 0 0 Z " fill="#B3B1E2" transform="translate(510,309)"/>
<path d="M0 0 C3.2578125 -0.29296875 3.2578125 -0.29296875 7.125 -0.1875 C9.04699219 -0.14689453 9.04699219 -0.14689453 11.0078125 -0.10546875 C11.99523437 -0.07066406 12.98265625 -0.03585938 14 0 C14 0.33 14 0.66 14 1 C8.72 1.66 3.44 2.32 -2 3 C-1.34 2.01 -0.68 1.02 0 0 Z " fill="#9B95D5" transform="translate(61,161)"/>
<path d="M0 0 C0.66 0.33 1.32 0.66 2 1 C1.34 1.66 0.68 2.32 0 3 C0.33 3.66 0.66 4.32 1 5 C-1.31 5.66 -3.62 6.32 -6 7 C-4.77065985 3.31197956 -3.06140622 2.27643027 0 0 Z " fill="#C3C3EC" transform="translate(373,161)"/>
</svg>
